<svg xmlns="http://www.w3.org/2000/svg" xmlns:xlink="http://www.w3.org/1999/xlink" width="48" height="48" viewBox="0 0 48 48">
  <defs>
    <linearGradient id="linear-gradient" x1="0.5" x2="0.5" y2="1" gradientUnits="objectBoundingBox">
      <stop offset="0" stop-color="#2bdbdc"/>
      <stop offset="1" stop-color="#0067f4"/>
    </linearGradient>
  </defs>
  <g id="Group_1178" data-name="Group 1178" transform="translate(-500.999 -542)">
    <path id="Subtraction_34" data-name="Subtraction 34" d="M16,32h0V24a8.009,8.009,0,0,0-8-8H0A16,16,0,0,1,27.314,4.686,16,16,0,0,1,16,32Z" transform="translate(516.999 542)" fill="url(#linear-gradient)"/>
    <rect id="Rectangle_1758" data-name="Rectangle 1758" width="32" height="32" rx="8" transform="translate(500.999 558)" fill="url(#linear-gradient)"/>
    <path id="Intersection_4" data-name="Intersection 4" d="M0,16A16,16,0,0,1,16,0V8a8,8,0,0,1-8,8Z" transform="translate(516.999 574)" fill="url(#linear-gradient)"/>
    <path id="Intersection_3" data-name="Intersection 3" d="M0,16V8A8,8,0,0,1,8,0h8A16,16,0,0,1,0,16Z" transform="translate(500.999 558)" fill="url(#linear-gradient)"/>
  </g>
</svg>
