<svg height="512" viewBox="0 0 512 512" width="512" xmlns="http://www.w3.org/2000/svg"><g id="Flat"><path d="m480 156-25.97 81.58-68 50.42h-84.06l-68-50.42-1.07-3.35-24.9-78.23 25.97-81.58 68-50.42h84.06l68 50.42z" fill="#92563a"/><path d="m480 156-25.97 81.58-68 50.42h-84.06l-68-50.42-1.07-3.35h62.94l68-50.42 25.98-81.58-24.91-78.23h21.12l68 50.42z" fill="#875036"/><g fill="#6e3d26"><path d="m364.888 232h-41.776v-16h39.134l8.989-6.666 9.53 12.853-11.113 8.239a8 8 0 0 1 -4.764 1.574z"/><path d="m396.765 210.324-9.53-12.853 5.236-3.882 8.92-28.016 15.246 4.854-9.7 30.477a8 8 0 0 1 -2.859 4z"/><path d="m395.92 119.604h16v16.792h-16z" transform="matrix(.953 -.303 .303 .953 -19.796 128.587)"/><path d="m375.457 264h-31.457v-16h28.815l14.42-10.692 9.53 12.852-16.543 12.266a8 8 0 0 1 -4.765 1.574z"/><path d="m412.765 238.3-9.53-12.853 16.594-12.3 18.193-57.147-3.048-9.573 15.246-4.854 3.821 12a8.011 8.011 0 0 1 0 4.854l-19.749 62.029a8 8 0 0 1 -2.859 4z"/><path d="m427.333 122.427-7.5-23.568-16.772-12.433 9.529-12.852 18.843 13.971a8 8 0 0 1 2.859 4l8.287 26.029z"/><path d="m368 144h16v16h-16z"/><path d="m328 56h16v16h-16z"/><path d="m256 104h16v16h-16z"/><path d="m288 216h16v16h-16z"/></g><path d="m128 430.62v-30.62l22.4-16.8a24.012 24.012 0 0 0 9.6-19.2v-36l24-16h32l8.14 65.58 56.29-31.06-.43-18.52-25 4.33-4.58-39.51a24.011 24.011 0 0 0 -23.38-21.23l-46.82-1.05-69.39 47.97 9.17 41.49-26.82 36.95 18.63 42.6v.01z" fill="#313b4c"/><rect fill="#fec9a3" height="56.569" rx="28.284" transform="matrix(.788 -.616 .616 .788 -81.502 151.082)" width="67.882" x="144.532" y="165.519"/><path d="m182.642 102.852h33.941v33.941h-33.941z" fill="#fec9a3" transform="matrix(.788 -.616 .616 .788 -31.441 148.4)"/><path d="m252.45 214.94-62.38 48.79-79.24 54.78-10.3-42.28-5.88-24.12a95.994 95.994 0 0 1 34.04-98.28l47.1-36.92 17.39 22.24 3.52 4.49-8.64 6.75-53.75 42.04 17.05 21.8 17.8 22.76 62.39-48.78z" fill="#f35244"/><path d="m238.397 174.149h33.941v33.941h-33.941z" fill="#fec9a3" transform="matrix(.788 -.616 .616 .788 -63.527 197.881)"/><path d="m24 488h464v-256z" fill="#f98500"/><path d="m300.945 356.138h49.11v16h-49.11z" fill="#f07800" transform="matrix(.876 -.483 .483 .876 -135.412 202.561)"/><path d="m358.863 332.69h18.274v16h-18.274z" fill="#f07800" transform="matrix(.876 -.483 .483 .876 -118.795 220.175)"/><path d="m251.92 432h66.826v16h-66.826z" fill="#f07800" transform="matrix(.878 -.479 .479 .878 -175.864 190.376)"/><path d="m396.94 356h50.12v16h-50.12z" fill="#f07800" transform="matrix(.878 -.479 .479 .878 -122.779 246.543)"/><path d="m345.88 432h100.24v16h-100.24z" fill="#f07800" transform="matrix(.878 -.479 .479 .878 -162.349 243.373)"/><path d="m214.887 412.363h18.225v16h-18.225z" fill="#f07800" transform="matrix(.878 -.479 .479 .878 -173.929 158.574)"/><path d="m438.887 299.636h18.225v16h-18.225z" fill="#f07800" transform="matrix(.878 -.479 .479 .878 -92.607 252.066)"/><path d="m158.887 444.363h18.225v16h-18.225z" fill="#f07800" transform="matrix(.878 -.479 .479 .878 -196.088 135.667)"/><path d="m252.45 214.94-62.38 48.79-79.24 54.78-10.3-42.28a479.252 479.252 0 0 0 50.83-62l17.8 22.76 62.39-48.78z" fill="#e64c3f"/></g></svg>