<svg height="512" viewBox="0 0 512 512" width="512" xmlns="http://www.w3.org/2000/svg"><g id="Flat"><path d="m160 136v208a32 32 0 0 0 32 32h208l-8.513-21.283a447.407 447.407 0 0 1 -29.78-121.644l-9.707-97.073z" fill="#e64c3f"/><path d="m48 320h128v96h-128z" fill="#78462f"/><path d="m136 280h-48a8 8 0 0 0 -8 8v32h16v-24h32v24h16v-32a8 8 0 0 0 -8-8z" fill="#92563a"/><path d="m48 320v32l64 24 64-24v-32z" fill="#92563a"/><path d="m320 456h-40l-24-136-24 136h-40l16-184h96z" fill="#3b495e"/><path d="m178.422 488h53.578v-32h-40l-19.359 12.906a10.423 10.423 0 0 0 -4.641 8.672 10.422 10.422 0 0 0 10.422 10.422z" fill="#92563a"/><path d="m333.578 488h-53.578v-32h40l19.359 12.906a10.423 10.423 0 0 1 4.641 8.672 10.422 10.422 0 0 1 -10.422 10.422z" fill="#92563a"/><path d="m256 136a40 40 0 0 1 -40-40v-40h80v40a40 40 0 0 1 -40 40z" fill="#fec9a3"/><path d="m232 80h16v16h-16z" fill="#92563a"/><path d="m264 80h16v16h-16z" fill="#92563a"/><path d="m296 56h-20.686a27.315 27.315 0 0 0 -19.314 8 27.315 27.315 0 0 1 -19.314 8h-20.686v-24a24 24 0 0 1 24-24h32a24 24 0 0 1 24 24z" fill="#92563a"/><path d="m424 145.77a38.2 38.2 0 0 1 -38.21 38.23h-73.79a128.181 128.181 0 0 1 -2.13 23.28q-2.865 16.02-4.37 32.23-1.485 16.19-1.5 32.49h-96q0-15.99-1.45-31.88-1.47-16.5-4.42-32.84a128.181 128.181 0 0 1 -2.13-23.28l-64 8-8 64h-40v-60.67a48.007 48.007 0 0 1 40.11-47.35l71.89-11.98h177.4l-7.61-53.27-.39-2.73h44.93l9.23 59.98a37.628 37.628 0 0 1 .44 5.79z" fill="#e0e0de"/><path d="m424 145.77a38.2 38.2 0 0 1 -38.21 38.23h-73.79a128.181 128.181 0 0 1 -2.13 23.28q-2.865 16.02-4.37 32.23-1.485 16.19-1.5 32.49h-96q0-15.99-1.45-31.88a463.052 463.052 0 0 0 124.69-104.12h46.16l-7.61-53.27q.855-1.365 1.68-2.73h42.86l9.23 59.98a37.628 37.628 0 0 1 .44 5.79z" fill="#dbdbd9"/><path d="m409.405 48a28.3 28.3 0 0 0 -28-24 28 28 0 0 0 -28 28c0 11.169 6.541 23.506 16 28h44.923z" fill="#fec9a3"/><path d="m116.584 296h-9.168a19.416 19.416 0 0 1 -19.416-19.416v-20.584h40l5.95 11.9a19.418 19.418 0 0 1 2.05 8.684 19.416 19.416 0 0 1 -19.416 19.416z" fill="#fec9a3"/><path d="m160 136 56 32v-32a16 16 0 0 0 -16-16h-24a16 16 0 0 0 -16 16z" fill="#f35244"/><path d="m352 136-56 32v-32a16 16 0 0 1 16-16h24a16 16 0 0 1 16 16z" fill="#f35244"/><path d="m240 136 8 16-8 88 16 16 16-16-8-88 8-16z" fill="#348fd9"/><g fill="#ffb531"><path d="m155.84 15.126h16v17.748h-16z" transform="matrix(.902 -.433 .433 .902 5.75 73.266)"/><path d="m176.96 45.815h16v44.369h-16z" transform="matrix(.902 -.433 .433 .902 -11.211 86.735)"/><path d="m129.92 88.7h16v27.524h-16z" transform="matrix(.693 -.721 .721 .693 -31.531 130.86)"/><path d="m85.76 31.144h16v57.711h-16z" transform="matrix(.693 -.721 .721 .693 -14.476 85.999)"/><path d="m48.32 12.458h16v23.085h-16z" transform="matrix(.693 -.721 .721 .693 -.016 47.963)"/><path d="m48 208h16v16h-16z"/><path d="m16 208h16v16h-16z"/><path d="m60 112.736h16.001v43.594h-16.001z" transform="matrix(.398 -.918 .918 .398 -82.479 143.434)"/><path d="m16 106.748h16.001v17.438h-16.001z" transform="matrix(.398 -.918 .918 .398 -91.489 91.576)"/><path d="m47.479 281.334h17.041v15.999h-17.041z" transform="matrix(.939 -.344 .344 .939 -96.181 36.963)"/><path d="m15.479 293.067h17.041v15.999h-17.041z" transform="matrix(.939 -.344 .344 .939 -102.176 26.664)"/><path d="m311.61 69.333h29.58v16h-29.58z" transform="matrix(.433 -.902 .902 .433 115.44 338.127)"/><path d="m425.373 32h45.255v16h-45.255z" transform="matrix(.707 -.707 .707 .707 102.919 328.485)"/><path d="m384 216h80v16h-80z"/><path d="m480 216h16v16h-16z"/><path d="m447.281 129.333h17.438v16.001h-17.438z" transform="matrix(.918 -.398 .398 .918 -17.009 192.638)"/><path d="m479.281 115.466h17.438v16.001h-17.438z" transform="matrix(.918 -.398 .398 .918 -8.857 204.219)"/><path d="m420 248.723h15.999v76.688h-15.999z" transform="matrix(.344 -.939 .939 .344 11.138 590.08)"/><path d="m480 300.546h15.999v17.041h-15.999z" transform="matrix(.344 -.939 .939 .344 29.837 660.852)"/></g><path d="m80 304h16v16h-16z" fill="#78462f"/><path d="m128 304h16v16h-16z" fill="#78462f"/></g></svg>