<svg height="512" viewBox="0 0 512 512" width="512" xmlns="http://www.w3.org/2000/svg"><g id="Flat"><path d="m240 352-5.716 57.164a32 32 0 0 1 -24.646 28l-81.638 18.836-16-32 72-24-16-56-104 80-24-32 120-120z" fill="#4d5e78"/><path d="m128 456-6.026 24.105a10.423 10.423 0 0 1 -10.112 7.895 10.423 10.423 0 0 1 -10.022-7.56l-13.84-48.44 24-8z" fill="#6e3d26"/><path d="m40 392-16 16v54.111a9.888 9.888 0 0 0 9.889 9.889 9.888 9.888 0 0 0 8.844-5.466l21.267-42.534z" fill="#6e3d26"/><path d="m329.775 159.029h124.451v33.941h-124.451z" fill="#404f66" transform="matrix(.707 -.707 .707 .707 -9.637 328.735)"/><path d="m448 144 33.289-26.632a17.878 17.878 0 0 0 6.711-13.962 17.88 17.88 0 0 0 -5.237-12.643l-6.12-6.12a17.881 17.881 0 0 0 -25.286 0l-11.357 11.357-8-8-8 8v24z" fill="#fec9a3"/><path d="m436 83.029h16v33.941h-16z" fill="#f7ad7c" transform="matrix(.707 -.707 .707 .707 59.334 343.245)"/><path d="m391.03 167.03a24 24 0 0 1 0 33.94l-31.03 31.03-80-80 40-40 80 16-24 24 13.72 13.72z" fill="#fec9a3"/><path d="m389.72 165.72-6.41 6.42a32.771 32.771 0 0 1 -37.89 6.14l7.16-14.31a16.774 16.774 0 0 0 19.41-3.15l6.42-6.41z" fill="#f7ad7c"/><path d="m392 88-24-24-88 88-120 120 80 80 48-48 24-24 48-48-56-56z" fill="#4d5e78"/><path d="m368 64 26.632-33.289a17.878 17.878 0 0 1 13.962-6.711 17.88 17.88 0 0 1 12.643 5.237l6.12 6.12a17.881 17.881 0 0 1 0 25.286l-11.357 11.357 8 8-8 8h-24z" fill="#fec9a3"/><path d="m404 51.029h16v33.941h-16z" fill="#f7ad7c" transform="matrix(.707 -.707 .707 .707 72.589 311.245)"/><path d="m273.14 112.01a113.106 113.106 0 0 1 -33.14 79.99l-80 80-64-64 45.52-42.48 24.83-23.17 17.05-15.92a113.106 113.106 0 0 1 77.19-30.43h11.41a113.63 113.63 0 0 1 1.14 16.01z" fill="#f35244"/><path d="m263.43 157.86a113.212 113.212 0 0 1 -23.43 34.14l-80 80-49.81-49.81a464.142 464.142 0 0 0 153.24-64.33z" fill="#e64c3f"/><path d="m112 224-32 16 40 40 16-32z" fill="#348fd9"/><path d="m251.667 179.667a7.975 7.975 0 0 1 -5.657-2.344l-35.667-35.666a8 8 0 0 1 11.314-11.314l35.666 35.667a8 8 0 0 1 -5.656 13.657z" fill="#de4132"/><path d="m312 280-24 24-42.5-40.18-103.98-98.3 24.83-23.17 109.71 103.69z" fill="#ffb531"/><path d="m312 280-24 24-42.5-40.18q15.465-8.265 30.56-17.78z" fill="#fcac1f"/><path d="m8 384 72-72h8a32 32 0 0 0 32-32l-40-40a32 32 0 0 0 -32 32v8l-40 40z" fill="#ffb531"/><path d="m360 232-55.02 18.34-16.98 5.66 2.83-14.15 13.17-65.85 26.34 26.34 11.32 11.32z" fill="#e0e0de"/><path d="m341.66 213.66-36.68 36.68-16.98 5.66 2.83-14.15 39.51-39.51z" fill="#348fd9"/><path d="m96 208-32-32 24-16 53.52 5.52z" fill="#348fd9"/><path d="m160 272 32 32 24-24-16-48z" fill="#348fd9"/><g fill="#a0dde5"><path d="m250.384 280.5h202.233v16h-202.233z" transform="matrix(.707 -.707 .707 .707 -101.048 333.048)"/><path d="m285.455 56.25h68.589v16h-68.589z" transform="matrix(.707 -.707 .707 .707 48.221 244.916)"/><path d="m96.81 88.5h117.38v16h-117.38z" transform="matrix(.707 -.707 .707 .707 -22.691 138.219)"/><path d="m9.526 212.75h54.447v16h-54.447z" transform="matrix(.707 -.707 .707 .707 -145.33 90.642)"/><path d="m167.787 473h42.426v16h-42.426z" transform="matrix(.707 -.707 .707 .707 -284.762 274.525)"/><path d="m250.461 348h147.078v16h-147.078z" transform="matrix(.707 -.707 .707 .707 -156.833 333.373)"/></g></g></svg>